<svg xmlns="http://www.w3.org/2000/svg" xmlns:xlink="http://www.w3.org/1999/xlink" version="1.1" id="Layer_1" x="0px" y="0px" width="100%" viewBox="0 0 1320 1000" enable-background="new 0 0 1320 1000" xml:space="preserve">
<path fill="#FFFFFF" opacity="1.000000" stroke="none" d=" M782.000000,1001.000000   C521.333313,1001.000000 261.166656,1001.000000 1.000000,1001.000000   C1.000000,667.666687 1.000000,334.333344 1.000000,1.000000   C441.000000,1.000000 881.000000,1.000000 1321.000000,1.000000   C1321.000000,334.333344 1321.000000,667.666687 1321.000000,1001.000000   C1141.500000,1001.000000 962.000000,1001.000000 782.000000,1001.000000  M1025.819946,544.798828   C1030.660889,543.797791 1035.714355,543.375305 1040.304077,541.690125   C1055.670410,536.048218 1060.885498,515.575378 1049.211182,504.662384   C1044.405151,500.169739 1037.139648,498.308289 1030.285034,494.923523   C1025.508179,493.213501 1020.640747,491.715454 1015.983215,489.725922   C1012.316772,488.159698 1009.282959,485.596741 1010.164856,480.967957   C1011.050354,476.320557 1014.424927,473.933167 1018.817017,473.141022   C1028.382324,471.415741 1033.574463,474.477203 1038.754639,484.714264   C1044.074097,483.345459 1049.432129,481.966736 1055.771240,480.335510   C1053.307007,476.095703 1051.822754,472.298676 1049.297241,469.412903   C1038.483765,457.056793 1014.561340,454.837769 1001.332825,464.586975   C989.090027,473.609619 988.775391,495.142426 1004.532898,501.497681   C1012.944031,504.890076 1021.538147,507.828949 1030.512329,511.459442   C1035.199585,513.650269 1037.936279,517.130981 1037.038574,522.485046   C1036.203735,527.464233 1032.596680,529.531006 1027.917358,530.165039   C1026.940308,530.297485 1025.984863,530.589966 1024.208374,530.517212   C1015.256104,530.077515 1009.166016,526.018921 1007.366943,516.351501   C1001.231079,517.728882 995.531616,519.008240 989.340210,520.398071   C990.310364,523.222168 990.819336,525.491943 991.827820,527.512451   C998.695068,541.272339 1010.986023,544.645691 1025.819946,544.798828  M768.826904,543.488281   C788.041809,543.712097 802.175476,534.055298 806.294373,516.510803   C808.046692,509.047089 808.324280,500.937683 807.655762,493.262482   C805.821716,472.206604 788.830139,458.351715 767.086731,459.875427   C757.515076,459.875427 747.943420,459.875427 738.352783,459.875427   C738.352783,488.001770 738.352783,515.613647 738.352783,543.184814   C748.472046,543.184814 758.235718,543.184814 768.826904,543.488281  M538.003052,506.705109   C536.481140,511.469818 534.959229,516.234497 533.437378,520.999207   C527.666382,501.824860 522.833130,482.812103 517.815125,463.848267   C517.414856,462.335815 515.825073,460.111389 514.637817,460.011963   C509.542877,459.585205 504.391693,459.829895 498.712189,459.829895   C506.052948,487.898590 513.266113,515.479248 520.513306,543.190308   C527.123657,543.190308 533.562866,543.190308 540.664551,543.482971   C541.876221,542.240417 543.706360,541.203674 544.199280,539.721985   C547.390930,530.128357 550.267456,520.430298 553.295471,510.781647   C555.103149,505.021637 556.998596,499.289215 559.310059,492.134552   C565.014343,510.233093 570.218628,526.745422 575.522095,543.572144   C577.057800,543.440796 578.510986,543.316467 580.861816,543.481934   C586.472900,543.481934 592.084045,543.481934 597.919556,543.481934   C605.235291,515.557495 612.477478,487.913696 619.840637,459.808167   C614.414795,459.808167 609.764343,459.985779 605.136292,459.741180   C602.387329,459.595856 601.422119,460.669769 600.814697,463.189972   C598.833496,471.410187 596.613159,479.572845 594.475586,487.755188   C591.567322,498.888153 588.650513,510.018890 585.359436,522.594604   C583.855896,518.128540 582.831238,515.084900 581.750854,511.265686   C576.710571,494.107300 571.670288,476.948914 566.633789,459.803253   C562.261658,459.803253 558.424683,459.561127 554.648926,459.935760   C553.343689,460.065277 551.451965,461.503296 551.080566,462.724518   C546.705261,477.111511 542.568115,491.570953 538.003052,506.705109  M868.413879,493.389160   C862.014343,483.084076 855.651855,472.755585 849.163208,462.506958   C848.442871,461.369141 847.034058,459.962097 845.892395,459.913879   C839.806763,459.657013 833.704529,459.792908 827.756592,459.792908   C827.756592,488.025146 827.756592,515.605530 827.756592,543.268921   C833.532715,543.268921 838.949707,543.268921 844.937744,543.268921   C844.937744,523.805908 844.937744,504.659149 844.937744,484.226990   C852.435242,496.006714 859.178833,506.601929 866.065552,517.864929   C870.901428,525.620422 875.703918,533.397156 880.614136,541.105347   C881.248657,542.101501 882.416931,543.407288 883.377136,543.440735   C889.488525,543.653198 895.610840,543.548828 901.698975,543.548828   C901.698975,515.350037 901.698975,487.763367 901.698975,460.161713   C895.993225,460.161713 890.592468,460.161713 884.608887,460.161713   C884.608887,479.413239 884.608887,498.347839 884.608887,518.614136   C878.766785,509.601379 873.713745,501.805878 868.413879,493.389160  M310.499695,571.363647   C343.160217,571.331360 375.820709,571.301453 408.481171,571.241394   C408.912445,571.240601 409.352509,570.875061 409.768250,570.643433   C409.898743,570.570740 409.993195,570.390198 410.048950,570.238647   C410.104584,570.087524 410.090973,569.910950 410.127930,569.546021   C409.968109,569.283875 409.725708,568.536926 409.482513,568.536682   C359.764801,568.485718 310.047058,568.487427 259.039154,568.487427   C264.828125,561.775085 269.169342,557.353821 277.972046,557.589111   C306.283630,558.345947 334.628174,557.870789 362.959991,557.870789   C379.459106,557.870789 395.958496,557.911682 412.456879,557.805969   C414.062622,557.795715 415.662537,556.880676 417.265167,556.385681   C417.093353,555.702820 416.921570,555.019897 416.749756,554.337036   C369.254791,554.337036 321.759796,554.337036 273.237762,554.337036   C278.633759,548.019043 282.813019,543.681030 291.404724,543.799866   C333.394470,544.381042 375.396606,544.072937 417.394348,544.030823   C419.245270,544.028992 421.095734,543.553650 422.946411,543.298950   C422.873474,542.541199 422.800537,541.783508 422.727570,541.025757   C377.769531,541.025757 332.811462,541.025757 287.124756,541.025757   C292.103333,533.391235 297.385620,530.245483 305.850769,530.356323   C344.508759,530.862854 383.177094,530.593079 421.841614,530.538269   C423.871094,530.535400 425.899689,529.946106 427.928711,529.629822   C427.863495,528.865601 427.798279,528.101379 427.733063,527.337158   C385.514618,527.337158 343.296143,527.337158 300.819580,527.337158   C305.904327,518.555786 312.735016,516.528625 321.755310,516.661316   C356.745880,517.176208 391.748474,516.882263 426.746582,516.839905   C428.659698,516.837585 430.572296,516.387695 432.485138,516.146179   C432.457092,515.317932 432.429077,514.489685 432.401062,513.661377   C424.814880,513.581360 417.228882,513.468445 409.642517,513.430298   C401.643127,513.390076 393.643402,513.421326 385.643829,513.421326   C377.810913,513.421326 369.977997,513.421326 362.145081,513.421326   C354.145508,513.421326 346.145935,513.421326 338.146362,513.421326   C330.447510,513.421326 322.748657,513.421265 314.309967,513.421265   C319.629608,506.306671 324.759735,502.711884 333.535645,502.893311   C365.853424,503.561584 398.193390,503.171143 430.524933,503.127869   C432.403961,503.125336 434.282410,502.671875 436.161133,502.428253   C436.113556,501.744690 436.066010,501.061127 436.018433,500.377563   C400.155823,500.377563 364.293243,500.377563 327.334747,500.377563   C332.971008,493.358765 337.663544,489.098846 346.562378,489.315033   C375.543701,490.019043 404.552917,489.592102 433.551300,489.548706   C435.510651,489.545776 437.469330,489.114288 439.428345,488.882111   C439.441498,488.231903 439.454651,487.581726 439.467834,486.931519   C437.584808,486.664062 435.702148,486.166840 433.818665,486.163605   C404.986969,486.114166 376.155121,486.129181 347.323334,486.129181   C345.592194,486.129181 343.861023,486.129150 341.704651,486.129150   C346.726166,478.806396 352.200989,475.379822 361.055115,475.624664   C386.367737,476.324554 411.712280,475.876526 437.044250,475.858063   C438.724640,475.856842 440.404877,475.672333 442.085205,475.573090   C442.164673,474.875824 442.244141,474.178558 442.323608,473.481293   C440.397797,473.127960 438.472809,472.472382 436.546051,472.467102   C411.380920,472.398163 386.215515,472.421356 361.050201,472.421356   C359.364349,472.421356 357.678467,472.421326 355.545410,472.421326   C360.595612,464.659698 366.355774,461.656311 375.149658,461.969635   C396.454803,462.728790 417.805267,462.216339 439.137451,462.216370   C440.872314,462.216370 442.607147,462.216370 444.342010,462.216370   C444.467743,461.508026 444.593475,460.799683 444.719238,460.091339   C443.023682,459.718201 441.329193,459.025787 439.632477,459.020233   C417.467224,458.947449 395.301666,458.976196 373.136169,458.961151   C371.800293,458.960236 370.464539,458.804718 368.368347,458.673523   C373.655823,453.990814 376.623444,448.383087 384.452209,448.636200   C403.430054,449.249725 422.438232,448.955566 441.434052,448.927399   C443.086090,448.924957 444.737000,448.186096 446.388428,447.789337   C446.308044,447.066498 446.227631,446.343689 446.147247,445.620850   C425.143402,445.620850 404.139557,445.620850 382.326202,445.620850   C387.613922,438.220642 392.624573,434.178497 401.462616,434.780151   C415.231415,435.717529 429.111145,435.063171 442.943237,434.978668   C444.473785,434.969330 446.000214,434.277466 447.528534,433.902130   C447.406311,433.210999 447.284058,432.519897 447.161835,431.828766   C430.399017,431.828766 413.636200,431.828766 395.755432,431.828766   C401.427124,425.229736 405.681946,420.006561 414.642792,420.982117   C424.195709,422.022186 433.949677,421.233063 443.615692,421.199310   C445.110413,421.194092 446.604340,420.957886 448.098663,420.828491   C448.164307,420.249481 448.229950,419.670471 448.295593,419.091431   C446.787537,418.718292 445.285492,418.054596 443.770325,418.023132   C437.773254,417.898560 431.772034,417.971893 425.772369,417.971893   C420.564087,417.971863 415.355774,417.971893 409.504608,417.971893   C414.818420,411.780579 419.173828,406.333923 427.841980,407.714264   C433.206970,408.568604 438.817871,407.975830 444.313965,407.845306   C445.806763,407.809875 447.283417,407.094116 448.767517,406.690582   C448.692963,405.978455 448.618439,405.266357 448.543915,404.554230   C440.362457,404.554230 432.181030,404.554230 423.512848,404.554230   C428.722961,396.379272 434.781403,392.306030 443.634521,394.001373   C444.595978,394.185486 445.751465,394.278229 446.591248,393.905182   C447.362305,393.562744 447.828430,392.533783 449.296661,390.757324   C444.577606,390.757324 441.220062,390.757324 437.862488,390.757324   C437.539337,390.226959 437.216217,389.696594 436.893097,389.166260   C440.878143,386.014679 444.863220,382.863098 448.848297,379.711517   C448.211395,378.965729 447.574493,378.219971 446.937592,377.474182   C441.385986,378.768280 439.261139,385.142731 434.451843,387.653046   C433.288879,377.538818 433.263489,377.441986 430.763031,376.343323   C431.606598,386.328491 431.523621,395.905396 420.678955,400.753204   C419.813904,392.548462 421.441223,384.206055 418.767670,376.180023   C417.590424,377.681641 417.120880,379.179596 417.097290,380.684509   C417.011078,386.182617 416.388550,391.791046 417.234497,397.158295   C418.635376,406.046295 412.856995,410.107758 406.870850,415.357178   C406.870850,408.059540 407.043030,401.593231 406.821167,395.140503   C406.609955,388.997375 407.806641,382.680573 405.106323,376.665253   C403.903717,378.286591 403.469910,379.916748 403.459747,381.549561   C403.396332,391.715302 402.775024,401.936798 403.628845,412.030731   C404.346497,420.515350 398.524933,423.684326 393.216339,429.387329   C393.216339,426.103821 393.216339,424.284180 393.216370,422.464569   C393.216522,408.965302 393.265533,395.465576 393.150452,381.967316   C393.137177,380.408203 392.211304,378.856873 391.708527,377.301941   C391.066864,377.468933 390.425201,377.635925 389.783539,377.802887   C389.783539,379.584167 389.783539,381.365448 389.783539,383.146729   C389.783569,396.812653 389.038483,410.533997 390.048737,424.124817   C390.709320,433.011078 385.756012,437.187836 379.578674,442.702484   C379.578674,440.081573 379.578644,438.480927 379.578644,436.880310   C379.578644,419.047943 379.602509,401.215454 379.539124,383.383331   C379.533234,381.724823 378.974121,380.068298 378.671844,378.410828   C378.055328,378.451782 377.438843,378.492737 376.822327,378.533691   C376.591278,380.386017 376.164703,382.237762 376.159485,384.090698   C376.109009,402.089600 375.472626,420.122864 376.407501,438.073242   C376.871460,446.981812 371.913727,450.986511 366.027924,456.259613   C366.027924,454.620575 366.027954,453.821899 366.027954,453.023254   C366.028015,430.525269 366.050323,408.027222 365.985535,385.529419   C365.980377,383.740356 365.372040,381.953003 365.044037,380.164886   C364.415222,380.229950 363.786438,380.295013 363.157623,380.360077   C362.950897,382.225922 362.567780,384.091400 362.564270,385.957642   C362.522552,408.123047 362.052795,430.304474 362.781311,452.446014   C363.063751,461.029724 358.014923,464.685944 351.784454,470.341309   C351.784454,440.203857 351.784454,411.451599 351.784454,382.699341   C351.141510,382.625793 350.498566,382.552246 349.855652,382.478699   C349.561066,384.154388 349.013214,385.829590 349.009766,387.505890   C348.955780,413.837708 348.497894,440.183014 349.239319,466.494049   C349.485504,475.228943 343.820251,478.186127 338.670654,483.969025   C338.670654,471.709778 338.670624,460.882996 338.670624,450.056213   C338.670624,439.056793 338.815033,428.054932 338.629120,417.058655   C338.451447,406.548828 339.429626,395.960968 336.971344,385.438538   C335.575989,387.290161 335.012421,389.211426 335.013275,391.132416   C335.026123,420.626862 334.775635,450.128357 335.393097,479.611298   C335.571411,488.125641 330.813049,492.150452 325.028107,497.189484   C325.028107,494.763184 325.028107,493.124023 325.028107,491.484863   C325.028107,458.986603 325.043549,426.488281 324.985870,393.990112   C324.982697,392.228943 324.367920,390.468903 324.037842,388.708313   C323.286438,388.803894 322.535004,388.899475 321.783600,388.995056   C321.783600,390.870941 321.783600,392.746796 321.783600,394.622681   C321.783630,427.954254 321.485382,461.290344 321.993500,494.614166   C322.120483,502.944794 316.269836,505.460510 311.912689,509.906860   C311.350739,471.488495 311.351654,433.338196 311.340607,395.187866   C311.340454,394.698669 311.239685,394.192566 311.087280,393.726593   C310.993866,393.440887 310.729279,393.200287 310.507935,392.972015   C310.401489,392.862305 310.222382,392.809937 310.066559,392.764954   C309.908112,392.719177 309.737823,392.714417 308.634827,392.562531   C308.413116,394.520996 308.002167,396.469452 308.000122,398.418365   C307.961761,434.916168 307.636749,471.419403 308.220947,507.907867   C308.357269,516.421875 302.698364,519.132690 297.870850,524.898132   C297.870850,484.737030 297.871002,446.074402 297.870514,407.411743   C297.870483,405.078552 298.046844,402.725189 297.790649,400.420197   C297.652069,399.173187 296.771332,398.008636 296.225403,396.806885   C295.732788,396.928131 295.240173,397.049377 294.747559,397.170654   C294.638824,399.072418 294.436096,400.974152 294.435211,402.875946   C294.416840,442.373840 294.136597,481.875397 294.644745,521.366760   C294.755707,529.992249 288.987152,532.940186 284.028107,538.641907   C284.028107,522.151001 284.028107,506.985931 284.028107,491.820831   C284.028107,476.821625 284.041199,461.822449 284.024445,446.823242   C284.007782,431.915405 283.961090,417.007538 283.927582,402.099701   C283.109650,402.066559 282.291718,402.033417 281.473785,402.000275   C281.243713,403.908417 280.814606,405.816376 280.812866,407.724731   C280.774597,449.722473 280.463898,491.724670 281.046478,533.714355   C281.166779,542.385010 276.570435,546.342773 270.578674,551.611389   C270.578674,548.874329 270.578644,547.090271 270.578644,545.306213   C270.578644,501.308563 270.590637,457.310913 270.539215,413.313324   C270.536926,411.356567 269.957703,409.400482 269.647217,407.444092   C268.984589,407.513702 268.321960,407.583313 267.659332,407.652924   C267.482605,409.701447 267.152954,411.749878 267.151611,413.798492   C267.122162,458.796112 266.848663,503.796997 267.376434,548.788391   C267.476562,557.326294 261.740631,559.986145 256.920013,565.965271   C256.920013,529.992859 256.909821,495.663269 256.924896,461.333679   C256.931061,447.335663 257.030487,433.337494 256.975586,419.339844   C256.969299,417.731445 256.241150,416.125885 255.847702,414.519012   C255.227142,414.598846 254.606583,414.678711 253.986023,414.758545   C253.799957,416.785431 253.452744,418.812256 253.451447,420.839233   C253.420990,468.670013 253.398453,516.500854 253.489746,564.331482   C253.496262,567.745056 252.614044,570.248596 250.100586,572.654358   C242.878845,579.566467 235.877029,586.710571 228.883575,593.856384   C227.860703,594.901489 227.354904,596.452637 226.609848,597.769653   C227.110733,598.063354 227.611618,598.357117 228.112503,598.650818   C229.315384,597.548035 230.559189,596.486328 231.714432,595.335693   C238.563080,588.514404 245.221878,581.488342 252.331772,574.952332   C254.403839,573.047485 257.725159,571.573792 260.505310,571.519775   C276.831604,571.202271 293.167206,571.363525 310.499695,571.363647  M953.499939,459.840302   C944.733032,459.840302 935.966064,459.840302 927.152466,459.840302   C927.152466,488.037750 927.152466,515.595398 927.152466,543.278442   C943.226379,543.278442 958.979980,543.278442 974.892517,543.278442   C974.892517,538.209595 974.892517,533.450806 974.892517,528.065308   C964.601868,528.065308 954.553162,528.065308 944.485779,528.065308   C944.485779,521.524292 944.485779,515.615479 944.485779,509.094574   C953.682251,509.094574 962.567871,509.094574 971.488098,509.094574   C971.488098,503.742798 971.488098,499.015076 971.488098,493.775024   C962.241394,493.775024 953.337463,493.775024 944.426880,493.775024   C944.426880,487.324738 944.426880,481.398865 944.426880,474.912994   C954.743591,474.912994 964.806152,474.912994 974.789856,474.912994   C974.789856,469.610382 974.789856,464.877899 974.789856,459.840607   C967.788635,459.840607 961.144287,459.840607 953.499939,459.840302  M1085.875977,541.380432   C1086.625488,542.045532 1087.354492,543.257690 1088.127686,543.286438   C1092.904541,543.464355 1097.691284,543.375793 1103.044678,543.375793   C1103.044678,520.382690 1103.044678,497.851776 1103.044678,474.798676   C1110.004517,474.798676 1116.398071,474.798676 1122.616699,474.798676   C1122.616699,469.519653 1122.616699,464.782379 1122.616699,460.236542   C1103.521240,460.236542 1084.804932,460.236542 1066.245361,460.236542   C1066.245361,465.360657 1066.245361,470.078552 1066.245361,475.189453   C1072.904419,475.189453 1079.161987,475.189453 1085.848877,475.189453   C1085.848877,497.197113 1085.848877,518.797119 1085.875977,541.380432  M677.994019,540.196167   C677.463562,543.377380 679.329346,543.608032 681.824097,543.587402   C692.809570,543.496521 703.796204,543.538818 714.782410,543.533264   C717.038452,543.532104 719.294556,543.533081 721.438843,543.533081   C721.438843,537.960144 721.438843,533.227661 721.438843,528.001221   C712.644470,528.001221 704.226685,528.001221 695.410278,528.001221   C695.410278,505.081726 695.410278,482.664459 695.410278,460.134918   C689.426147,460.134918 683.869019,460.134918 677.993896,460.134918   C677.993896,486.712372 677.993896,512.984558 677.994019,540.196167  M636.004700,521.500000   C636.004700,528.735107 636.004700,535.970276 636.004700,543.081665   C642.221985,543.081665 647.761475,543.081665 653.123535,543.081665   C653.123535,515.138733 653.123535,487.636353 653.123535,460.060211   C647.306763,460.060211 641.882568,460.060211 636.004700,460.060211   C636.004700,480.349945 636.004700,500.424988 636.004700,521.500000  M229.885529,435.245636   C229.078888,434.556061 228.272247,433.866516 227.465576,433.176941   C226.955597,434.166443 226.035507,435.144379 226.007187,436.147461   C225.889832,440.304749 226.092804,444.469757 226.087051,448.631805   C226.040298,482.451355 225.955673,516.270874 225.959427,550.090454   C225.959625,551.921265 226.647583,553.751953 227.015396,555.582703   C227.656738,555.533875 228.298080,555.485046 228.939423,555.436279   C229.228806,553.978638 229.768417,552.521301 229.770554,551.063232   C229.811111,523.239075 229.765930,495.414856 229.790314,467.590668   C229.799500,457.099121 229.939270,446.607727 229.885529,435.245636  M382.399261,595.073547   C346.757721,595.019775 311.116211,594.950439 275.474670,594.952576   C273.424530,594.952698 271.374481,595.534912 269.324371,595.846252   C269.330841,596.477478 269.337311,597.108643 269.343781,597.739868   C270.756805,598.114136 272.169312,598.812866 273.582977,598.815247   C311.555573,598.878845 349.528351,598.886047 387.500946,598.819641   C388.993622,598.817017 390.484833,597.996094 391.976715,597.556458   C391.908936,596.902222 391.841187,596.247986 391.773407,595.593811   C388.965393,595.377930 386.157349,595.162109 382.399261,595.073547  M239.927582,440.501892   C239.962387,480.312042 239.994843,520.122192 240.065216,559.932251   C240.065918,560.329773 240.552353,560.738342 240.844940,561.116333   C240.936172,561.234192 241.129837,561.289734 241.287796,561.333801   C241.430710,561.373657 241.588806,561.358948 241.740219,561.368286   C244.068146,557.251282 243.673309,425.779541 239.927582,423.041534   C239.927582,428.528717 239.927582,434.015869 239.927582,440.501892  M283.500275,584.971436   C321.120789,584.981323 358.741302,585.002563 396.361786,584.966614   C398.209198,584.964905 400.056183,584.462585 401.903351,584.193359   C401.822998,583.622620 401.742645,583.051941 401.662292,582.481262   C355.618774,582.481262 309.575287,582.481262 263.531769,582.481262   C263.495300,583.103271 263.458832,583.725281 263.422363,584.347290   C269.673035,585.704651 276.151642,584.673767 283.500275,584.971436  M212.636353,462.506165   C212.636429,488.170868 212.619949,513.835632 212.671127,539.500183   C212.674835,541.358521 213.170746,543.216003 213.437820,545.073853   C214.039017,545.052429 214.640213,545.030945 215.241409,545.009460   C215.503540,543.661743 215.992584,542.314270 215.994492,540.966187   C216.037872,510.469543 216.043228,479.972809 215.977188,449.476257   C215.974243,448.119415 215.230164,446.764221 214.831299,445.408234   C214.099716,445.468658 213.368149,445.529083 212.636566,445.589508   C212.636566,450.896423 212.636566,456.203339 212.636353,462.506165  M377.170502,608.985840   C346.388336,608.979126 315.606110,608.957947 284.824036,609.005188   C283.169678,609.007751 281.516174,609.584900 279.862305,609.894531   C279.917023,610.473083 279.971741,611.051575 280.026459,611.630127   C281.555511,611.809326 283.084412,612.143188 284.613647,612.144775   C314.730286,612.175415 344.846985,612.168823 374.963654,612.162109   C375.959137,612.161865 377.252136,612.435425 377.857666,611.927368   C378.358459,611.507141 378.047394,610.119324 377.170502,608.985840  M349.446808,625.961243   C352.888367,625.384949 356.838745,627.471619 360.882843,623.491211   C358.525604,623.044434 357.190186,622.574524 355.853485,622.570801   C338.354736,622.521423 320.855652,622.510315 303.357117,622.591553   C301.988708,622.597900 300.623840,623.364807 299.257324,623.778259   C299.328217,624.505920 299.399109,625.233521 299.470001,625.961182   C315.800629,625.961182 332.131287,625.961182 349.446808,625.961243  M198.998840,497.500000   C198.998840,502.331573 198.998840,507.163177 198.998840,511.994751   C198.998840,523.363403 198.998840,523.363403 201.097992,525.092285   C203.217926,520.017761 202.635239,467.661194 198.998840,465.087982   C198.998840,475.558655 198.998840,486.029327 198.998840,497.500000  z"/>
<path fill="#12A625" opacity="1.000000" stroke="none" d=" M309.999695,571.363525   C293.167206,571.363525 276.831604,571.202271 260.505310,571.519775   C257.725159,571.573792 254.403839,573.047485 252.331772,574.952332   C245.221878,581.488342 238.563080,588.514404 231.714432,595.335693   C230.559189,596.486328 229.315384,597.548035 228.112503,598.650818   C227.611618,598.357117 227.110733,598.063354 226.609848,597.769653   C227.354904,596.452637 227.860703,594.901489 228.883575,593.856384   C235.877029,586.710571 242.878845,579.566467 250.100586,572.654358   C252.614044,570.248596 253.496262,567.745056 253.489746,564.331482   C253.398453,516.500854 253.420990,468.670013 253.451447,420.839233   C253.452744,418.812256 253.799957,416.785431 253.986023,414.758545   C254.606583,414.678711 255.227142,414.598846 255.847702,414.519012   C256.241150,416.125885 256.969299,417.731445 256.975586,419.339844   C257.030487,433.337494 256.931061,447.335663 256.924896,461.333679   C256.909821,495.663269 256.920013,529.992859 256.920013,565.965271   C261.740631,559.986145 267.476562,557.326294 267.376434,548.788391   C266.848663,503.796997 267.122162,458.796112 267.151611,413.798492   C267.152954,411.749878 267.482605,409.701447 267.659332,407.652924   C268.321960,407.583313 268.984589,407.513702 269.647217,407.444092   C269.957703,409.400482 270.536926,411.356567 270.539215,413.313324   C270.590637,457.310913 270.578644,501.308563 270.578644,545.306213   C270.578644,547.090271 270.578674,548.874329 270.578674,551.611389   C276.570435,546.342773 281.166779,542.385010 281.046478,533.714355   C280.463898,491.724670 280.774597,449.722473 280.812866,407.724731   C280.814606,405.816376 281.243713,403.908417 281.473785,402.000275   C282.291718,402.033417 283.109650,402.066559 283.927582,402.099701   C283.961090,417.007538 284.007782,431.915405 284.024445,446.823242   C284.041199,461.822449 284.028107,476.821625 284.028107,491.820831   C284.028107,506.985931 284.028107,522.151001 284.028107,538.641907   C288.987152,532.940186 294.755707,529.992249 294.644745,521.366760   C294.136597,481.875397 294.416840,442.373840 294.435211,402.875946   C294.436096,400.974152 294.638824,399.072418 294.747559,397.170654   C295.240173,397.049377 295.732788,396.928131 296.225403,396.806885   C296.771332,398.008636 297.652069,399.173187 297.790649,400.420197   C298.046844,402.725189 297.870483,405.078552 297.870514,407.411743   C297.871002,446.074402 297.870850,484.737030 297.870850,524.898132   C302.698364,519.132690 308.357269,516.421875 308.220947,507.907867   C307.636749,471.419403 307.961761,434.916168 308.000122,398.418365   C308.002167,396.469452 308.413116,394.520996 308.634827,392.562531   C309.737823,392.714417 309.908112,392.719177 310.066559,392.764954   C310.222382,392.809937 310.401489,392.862305 310.507935,392.972015   C310.729279,393.200287 310.993866,393.440887 311.087280,393.726593   C311.239685,394.192566 311.340454,394.698669 311.340607,395.187866   C311.351654,433.338196 311.350739,471.488495 311.912689,509.906860   C316.269836,505.460510 322.120483,502.944794 321.993500,494.614166   C321.485382,461.290344 321.783630,427.954254 321.783600,394.622681   C321.783600,392.746796 321.783600,390.870941 321.783600,388.995056   C322.535004,388.899475 323.286438,388.803894 324.037842,388.708313   C324.367920,390.468903 324.982697,392.228943 324.985870,393.990112   C325.043549,426.488281 325.028107,458.986603 325.028107,491.484863   C325.028107,493.124023 325.028107,494.763184 325.028107,497.189484   C330.813049,492.150452 335.571411,488.125641 335.393097,479.611298   C334.775635,450.128357 335.026123,420.626862 335.013275,391.132416   C335.012421,389.211426 335.575989,387.290161 336.971344,385.438538   C339.429626,395.960968 338.451447,406.548828 338.629120,417.058655   C338.815033,428.054932 338.670624,439.056793 338.670624,450.056213   C338.670624,460.882996 338.670654,471.709778 338.670654,483.969025   C343.820251,478.186127 349.485504,475.228943 349.239319,466.494049   C348.497894,440.183014 348.955780,413.837708 349.009766,387.505890   C349.013214,385.829590 349.561066,384.154388 349.855652,382.478699   C350.498566,382.552246 351.141510,382.625793 351.784454,382.699341   C351.784454,411.451599 351.784454,440.203857 351.784454,470.341309   C358.014923,464.685944 363.063751,461.029724 362.781311,452.446014   C362.052795,430.304474 362.522552,408.123047 362.564270,385.957642   C362.567780,384.091400 362.950897,382.225922 363.157623,380.360077   C363.786438,380.295013 364.415222,380.229950 365.044037,380.164886   C365.372040,381.953003 365.980377,383.740356 365.985535,385.529419   C366.050323,408.027222 366.028015,430.525269 366.027954,453.023254   C366.027954,453.821899 366.027924,454.620575 366.027924,456.259613   C371.913727,450.986511 376.871460,446.981812 376.407501,438.073242   C375.472626,420.122864 376.109009,402.089600 376.159485,384.090698   C376.164703,382.237762 376.591278,380.386017 376.822327,378.533691   C377.438843,378.492737 378.055328,378.451782 378.671844,378.410828   C378.974121,380.068298 379.533234,381.724823 379.539124,383.383331   C379.602509,401.215454 379.578644,419.047943 379.578644,436.880310   C379.578644,438.480927 379.578674,440.081573 379.578674,442.702484   C385.756012,437.187836 390.709320,433.011078 390.048737,424.124817   C389.038483,410.533997 389.783569,396.812653 389.783539,383.146729   C389.783539,381.365448 389.783539,379.584167 389.783539,377.802887   C390.425201,377.635925 391.066864,377.468933 391.708527,377.301941   C392.211304,378.856873 393.137177,380.408203 393.150452,381.967316   C393.265533,395.465576 393.216522,408.965302 393.216370,422.464569   C393.216339,424.284180 393.216339,426.103821 393.216339,429.387329   C398.524933,423.684326 404.346497,420.515350 403.628845,412.030731   C402.775024,401.936798 403.396332,391.715302 403.459747,381.549561   C403.469910,379.916748 403.903717,378.286591 405.106323,376.665253   C407.806641,382.680573 406.609955,388.997375 406.821167,395.140503   C407.043030,401.593231 406.870850,408.059540 406.870850,415.357178   C412.856995,410.107758 418.635376,406.046295 417.234497,397.158295   C416.388550,391.791046 417.011078,386.182617 417.097290,380.684509   C417.120880,379.179596 417.590424,377.681641 418.767670,376.180023   C421.441223,384.206055 419.813904,392.548462 420.678955,400.753204   C431.523621,395.905396 431.606598,386.328491 430.763031,376.343323   C433.263489,377.441986 433.288879,377.538818 434.451843,387.653046   C439.261139,385.142731 441.385986,378.768280 446.937592,377.474182   C447.574493,378.219971 448.211395,378.965729 448.848297,379.711517   C444.863220,382.863098 440.878143,386.014679 436.893097,389.166260   C437.216217,389.696594 437.539337,390.226959 437.862488,390.757324   C441.220062,390.757324 444.577606,390.757324 449.296661,390.757324   C447.828430,392.533783 447.362305,393.562744 446.591248,393.905182   C445.751465,394.278229 444.595978,394.185486 443.634521,394.001373   C434.781403,392.306030 428.722961,396.379272 423.512848,404.554230   C432.181030,404.554230 440.362457,404.554230 448.543915,404.554230   C448.618439,405.266357 448.692963,405.978455 448.767517,406.690582   C447.283417,407.094116 445.806763,407.809875 444.313965,407.845306   C438.817871,407.975830 433.206970,408.568604 427.841980,407.714264   C419.173828,406.333923 414.818420,411.780579 409.504608,417.971893   C415.355774,417.971893 420.564087,417.971863 425.772369,417.971893   C431.772034,417.971893 437.773254,417.898560 443.770325,418.023132   C445.285492,418.054596 446.787537,418.718292 448.295593,419.091431   C448.229950,419.670471 448.164307,420.249481 448.098663,420.828491   C446.604340,420.957886 445.110413,421.194092 443.615692,421.199310   C433.949677,421.233063 424.195709,422.022186 414.642792,420.982117   C405.681946,420.006561 401.427124,425.229736 395.755432,431.828766   C413.636200,431.828766 430.399017,431.828766 447.161835,431.828766   C447.284058,432.519897 447.406311,433.210999 447.528534,433.902130   C446.000214,434.277466 444.473785,434.969330 442.943237,434.978668   C429.111145,435.063171 415.231415,435.717529 401.462616,434.780151   C392.624573,434.178497 387.613922,438.220642 382.326202,445.620850   C404.139557,445.620850 425.143402,445.620850 446.147247,445.620850   C446.227631,446.343689 446.308044,447.066498 446.388428,447.789337   C444.737000,448.186096 443.086090,448.924957 441.434052,448.927399   C422.438232,448.955566 403.430054,449.249725 384.452209,448.636200   C376.623444,448.383087 373.655823,453.990814 368.368347,458.673523   C370.464539,458.804718 371.800293,458.960236 373.136169,458.961151   C395.301666,458.976196 417.467224,458.947449 439.632477,459.020233   C441.329193,459.025787 443.023682,459.718201 444.719238,460.091339   C444.593475,460.799683 444.467743,461.508026 444.342010,462.216370   C442.607147,462.216370 440.872314,462.216370 439.137451,462.216370   C417.805267,462.216339 396.454803,462.728790 375.149658,461.969635   C366.355774,461.656311 360.595612,464.659698 355.545410,472.421326   C357.678467,472.421326 359.364349,472.421356 361.050201,472.421356   C386.215515,472.421356 411.380920,472.398163 436.546051,472.467102   C438.472809,472.472382 440.397797,473.127960 442.323608,473.481293   C442.244141,474.178558 442.164673,474.875824 442.085205,475.573090   C440.404877,475.672333 438.724640,475.856842 437.044250,475.858063   C411.712280,475.876526 386.367737,476.324554 361.055115,475.624664   C352.200989,475.379822 346.726166,478.806396 341.704651,486.129150   C343.861023,486.129150 345.592194,486.129181 347.323334,486.129181   C376.155121,486.129181 404.986969,486.114166 433.818665,486.163605   C435.702148,486.166840 437.584808,486.664062 439.467834,486.931519   C439.454651,487.581726 439.441498,488.231903 439.428345,488.882111   C437.469330,489.114288 435.510651,489.545776 433.551300,489.548706   C404.552917,489.592102 375.543701,490.019043 346.562378,489.315033   C337.663544,489.098846 332.971008,493.358765 327.334747,500.377563   C364.293243,500.377563 400.155823,500.377563 436.018433,500.377563   C436.066010,501.061127 436.113556,501.744690 436.161133,502.428253   C434.282410,502.671875 432.403961,503.125336 430.524933,503.127869   C398.193390,503.171143 365.853424,503.561584 333.535645,502.893311   C324.759735,502.711884 319.629608,506.306671 314.309967,513.421265   C322.748657,513.421265 330.447510,513.421326 338.146362,513.421326   C346.145935,513.421326 354.145508,513.421326 362.145081,513.421326   C369.977997,513.421326 377.810913,513.421326 385.643829,513.421326   C393.643402,513.421326 401.643127,513.390076 409.642517,513.430298   C417.228882,513.468445 424.814880,513.581360 432.401062,513.661377   C432.429077,514.489685 432.457092,515.317932 432.485138,516.146179   C430.572296,516.387695 428.659698,516.837585 426.746582,516.839905   C391.748474,516.882263 356.745880,517.176208 321.755310,516.661316   C312.735016,516.528625 305.904327,518.555786 300.819580,527.337158   C343.296143,527.337158 385.514618,527.337158 427.733063,527.337158   C427.798279,528.101379 427.863495,528.865601 427.928711,529.629822   C425.899689,529.946106 423.871094,530.535400 421.841614,530.538269   C383.177094,530.593079 344.508759,530.862854 305.850769,530.356323   C297.385620,530.245483 292.103333,533.391235 287.124756,541.025757   C332.811462,541.025757 377.769531,541.025757 422.727570,541.025757   C422.800537,541.783508 422.873474,542.541199 422.946411,543.298950   C421.095734,543.553650 419.245270,544.028992 417.394348,544.030823   C375.396606,544.072937 333.394470,544.381042 291.404724,543.799866   C282.813019,543.681030 278.633759,548.019043 273.237762,554.337036   C321.759796,554.337036 369.254791,554.337036 416.749756,554.337036   C416.921570,555.019897 417.093353,555.702820 417.265167,556.385681   C415.662537,556.880676 414.062622,557.795715 412.456879,557.805969   C395.958496,557.911682 379.459106,557.870789 362.959991,557.870789   C334.628174,557.870789 306.283630,558.345947 277.972046,557.589111   C269.169342,557.353821 264.828125,561.775085 259.039154,568.487427   C310.047058,568.487427 359.764801,568.485718 409.482513,568.536682   C409.725708,568.536926 409.968109,569.283875 410.127930,569.546021   C410.090973,569.910950 410.104584,570.087524 410.048950,570.238647   C409.993195,570.390198 409.898743,570.570740 409.768250,570.643433   C409.352509,570.875061 408.912445,571.240601 408.481171,571.241394   C375.820709,571.301453 343.160217,571.331360 309.999695,571.363525  z"/>
<path fill="#6CB22B" opacity="1.000000" stroke="none" d=" M953.999878,459.840454   C961.144287,459.840607 967.788635,459.840607 974.789856,459.840607   C974.789856,464.877899 974.789856,469.610382 974.789856,474.912994   C964.806152,474.912994 954.743591,474.912994 944.426880,474.912994   C944.426880,481.398865 944.426880,487.324738 944.426880,493.775024   C953.337463,493.775024 962.241394,493.775024 971.488098,493.775024   C971.488098,499.015076 971.488098,503.742798 971.488098,509.094574   C962.567871,509.094574 953.682251,509.094574 944.485779,509.094574   C944.485779,515.615479 944.485779,521.524292 944.485779,528.065308   C954.553162,528.065308 964.601868,528.065308 974.892517,528.065308   C974.892517,533.450806 974.892517,538.209595 974.892517,543.278442   C958.979980,543.278442 943.226379,543.278442 927.152466,543.278442   C927.152466,515.595398 927.152466,488.037750 927.152466,459.840302   C935.966064,459.840302 944.733032,459.840302 953.999878,459.840454  z"/>
<path fill="#58A434" opacity="1.000000" stroke="none" d=" M865.922424,517.197144   C859.178833,506.601929 852.435242,496.006714 844.937744,484.226990   C844.937744,504.659149 844.937744,523.805908 844.937744,543.268921   C838.949707,543.268921 833.532715,543.268921 827.756592,543.268921   C827.756592,515.605530 827.756592,488.025146 827.756592,459.792908   C833.704529,459.792908 839.806763,459.657013 845.892395,459.913879   C847.034058,459.962097 848.442871,461.369141 849.163208,462.506958   C855.651855,472.755585 862.014343,483.084076 868.170837,493.824249   C867.618530,496.143494 867.168457,498.017120 867.026184,499.913788   C866.594360,505.670135 866.281616,511.435364 865.922424,517.197144  z"/>
<path fill="#14753A" opacity="1.000000" stroke="none" d=" M579.964233,543.192200   C578.510986,543.316467 577.057800,543.440796 575.522095,543.572144   C570.218628,526.745422 565.014343,510.233093 559.310059,492.134552   C556.998596,499.289215 555.103149,505.021637 553.295471,510.781647   C550.267456,520.430298 547.390930,530.128357 544.199280,539.721985   C543.706360,541.203674 541.876221,542.240417 540.335449,542.974976   C540.295166,540.366028 540.799500,538.268555 540.833496,536.163513   C540.949768,528.955688 541.069946,521.739624 540.832947,514.538391   C540.736267,511.604309 542.992554,507.724792 538.368225,506.011292   C542.568115,491.570953 546.705261,477.111511 551.080566,462.724518   C551.451965,461.503296 553.343689,460.065277 554.648926,459.935760   C558.424683,459.561127 562.261658,459.803253 566.633789,459.803253   C571.670288,476.948914 576.710571,494.107300 581.414673,511.736755   C580.418152,514.993164 579.209961,517.777100 579.202942,520.564087   C579.183899,528.106140 579.675293,535.649414 579.964233,543.192200  z"/>
<path fill="#8FCA25" opacity="1.000000" stroke="none" d=" M1085.862427,540.888794   C1085.848877,518.797119 1085.848877,497.197113 1085.848877,475.189453   C1079.161987,475.189453 1072.904419,475.189453 1066.245361,475.189453   C1066.245361,470.078552 1066.245361,465.360657 1066.245361,460.236542   C1084.804932,460.236542 1103.521240,460.236542 1122.616699,460.236542   C1122.616699,464.782379 1122.616699,469.519653 1122.616699,474.798676   C1116.398071,474.798676 1110.004517,474.798676 1103.044678,474.798676   C1103.044678,497.851776 1103.044678,520.382690 1103.044678,543.375793   C1097.691284,543.375793 1092.904541,543.464355 1088.127686,543.286438   C1087.354492,543.257690 1086.625488,542.045532 1085.862427,540.888794  z"/>
<path fill="#5FA92D" opacity="1.000000" stroke="none" d=" M865.994019,517.531006   C866.281616,511.435364 866.594360,505.670135 867.026184,499.913788   C867.168457,498.017120 867.618530,496.143494 868.294250,494.134857   C873.713745,501.805878 878.766785,509.601379 884.608887,518.614136   C884.608887,498.347839 884.608887,479.413239 884.608887,460.161713   C890.592468,460.161713 895.993225,460.161713 901.698975,460.161713   C901.698975,487.763367 901.698975,515.350037 901.698975,543.548828   C895.610840,543.548828 889.488525,543.653198 883.377136,543.440735   C882.416931,543.407288 881.248657,542.101501 880.614136,541.105347   C875.703918,533.397156 870.901428,525.620422 865.994019,517.531006  z"/>
<path fill="#308933" opacity="1.000000" stroke="none" d=" M677.993958,539.726440   C677.993896,512.984558 677.993896,486.712372 677.993896,460.134918   C683.869019,460.134918 689.426147,460.134918 695.410278,460.134918   C695.410278,482.664459 695.410278,505.081726 695.410278,528.001221   C704.226685,528.001221 712.644470,528.001221 721.438843,528.001221   C721.438843,533.227661 721.438843,537.960144 721.438843,543.533081   C719.294556,543.533081 717.038452,543.532104 714.782410,543.533264   C703.796204,543.538818 692.809570,543.496521 681.824097,543.587402   C679.329346,543.608032 677.463562,543.377380 677.993958,539.726440  z"/>
<path fill="#4A9A33" opacity="1.000000" stroke="none" d=" M768.012695,460.044678   C788.830139,458.351715 805.821716,472.206604 807.655762,493.262482   C808.324280,500.937683 808.046692,509.047089 806.294373,516.510803   C802.175476,534.055298 788.041809,543.712097 768.412903,542.926575   C767.995789,537.703796 767.992615,533.042786 768.395020,528.250854   C781.765442,526.957947 787.670837,521.501160 789.402161,507.698547   C791.600403,490.173981 786.878540,476.173584 767.997253,474.430298   C768.004395,469.329102 768.008545,464.686890 768.012695,460.044678  z"/>
<path fill="#3C9130" opacity="1.000000" stroke="none" d=" M767.989441,528.381714   C767.992615,533.042786 767.995789,537.703796 767.999146,542.774841   C758.235718,543.184814 748.472046,543.184814 738.352783,543.184814   C738.352783,515.613647 738.352783,488.001770 738.352783,459.875427   C747.943420,459.875427 757.515076,459.875427 767.549683,459.960052   C768.008545,464.686890 768.004395,469.329102 767.534668,474.475769   C763.176392,474.980194 759.283752,474.980194 755.430176,474.980194   C755.430176,493.078827 755.430176,510.402863 755.430176,528.381714   C759.791748,528.381714 763.890625,528.381714 767.989441,528.381714  z"/>
<path fill="#086D39" opacity="1.000000" stroke="none" d=" M538.185669,506.358215   C542.992554,507.724792 540.736267,511.604309 540.832947,514.538391   C541.069946,521.739624 540.949768,528.955688 540.833496,536.163513   C540.799500,538.268555 540.295166,540.366028 540.004272,542.828613   C533.562866,543.190308 527.123657,543.190308 520.513306,543.190308   C513.266113,515.479248 506.052948,487.898590 498.712189,459.829895   C504.391693,459.829895 509.542877,459.585205 514.637817,460.011963   C515.825073,460.111389 517.414856,462.335815 517.815125,463.848267   C522.833130,482.812103 527.666382,501.824860 533.437378,520.999207   C534.959229,516.234497 536.481140,511.469818 538.185669,506.358215  z"/>
<path fill="#1C7B38" opacity="1.000000" stroke="none" d=" M580.413025,543.337036   C579.675293,535.649414 579.183899,528.106140 579.202942,520.564087   C579.209961,517.777100 580.418152,514.993164 581.442505,512.124573   C582.831238,515.084900 583.855896,518.128540 585.359436,522.594604   C588.650513,510.018890 591.567322,498.888153 594.475586,487.755188   C596.613159,479.572845 598.833496,471.410187 600.814697,463.189972   C601.422119,460.669769 602.387329,459.595856 605.136292,459.741180   C609.764343,459.985779 614.414795,459.808167 619.840637,459.808167   C612.477478,487.913696 605.235291,515.557495 597.919556,543.481934   C592.084045,543.481934 586.472900,543.481934 580.413025,543.337036  z"/>
<path fill="#7EBF2A" opacity="1.000000" stroke="none" d=" M1030.049683,510.972504   C1021.538147,507.828949 1012.944031,504.890076 1004.532898,501.497681   C988.775391,495.142426 989.090027,473.609619 1001.332825,464.586975   C1014.561340,454.837769 1038.483765,457.056793 1049.297241,469.412903   C1051.822754,472.298676 1053.307007,476.095703 1055.771240,480.335510   C1049.432129,481.966736 1044.074097,483.345459 1038.754639,484.714264   C1033.574463,474.477203 1028.382324,471.415741 1018.817017,473.141022   C1014.424927,473.933167 1011.050354,476.320557 1010.164856,480.967957   C1009.282959,485.596741 1012.316772,488.159698 1015.983215,489.725922   C1020.640747,491.715454 1025.508179,493.213501 1030.640869,495.536285   C1030.681030,501.090210 1030.365356,506.031342 1030.049683,510.972504  z"/>
<path fill="#1C7B38" opacity="1.000000" stroke="none" d=" M636.004700,521.000000   C636.004700,500.424988 636.004700,480.349945 636.004700,460.060211   C641.882568,460.060211 647.306763,460.060211 653.123535,460.060211   C653.123535,487.636353 653.123535,515.138733 653.123535,543.081665   C647.761475,543.081665 642.221985,543.081665 636.004700,543.081665   C636.004700,535.970276 636.004700,528.735107 636.004700,521.000000  z"/>
<path fill="#84C22B" opacity="1.000000" stroke="none" d=" M1030.281006,511.215973   C1030.365356,506.031342 1030.681030,501.090210 1030.994629,495.699554   C1037.139648,498.308289 1044.405151,500.169739 1049.211182,504.662384   C1060.885498,515.575378 1055.670410,536.048218 1040.304077,541.690125   C1035.714355,543.375305 1030.660889,543.797791 1025.409058,544.272888   C1025.005371,539.434204 1025.012451,535.121460 1025.019531,530.808716   C1025.984863,530.589966 1026.940308,530.297485 1027.917358,530.165039   C1032.596680,529.531006 1036.203735,527.464233 1037.038574,522.485046   C1037.936279,517.130981 1035.199585,513.650269 1030.281006,511.215973  z"/>
<path fill="#7EBF2A" opacity="1.000000" stroke="none" d=" M1024.614014,530.662964   C1025.012451,535.121460 1025.005371,539.434204 1024.999023,544.184692   C1010.986023,544.645691 998.695068,541.272339 991.827820,527.512451   C990.819336,525.491943 990.310364,523.222168 989.340210,520.398071   C995.531616,519.008240 1001.231079,517.728882 1007.366943,516.351501   C1009.166016,526.018921 1015.256104,530.077515 1024.614014,530.662964  z"/>
<path fill="#31B241" opacity="1.000000" stroke="none" d=" M229.952515,435.680939   C229.939270,446.607727 229.799500,457.099121 229.790314,467.590668   C229.765930,495.414856 229.811111,523.239075 229.770554,551.063232   C229.768417,552.521301 229.228806,553.978638 228.939423,555.436279   C228.298080,555.485046 227.656738,555.533875 227.015396,555.582703   C226.647583,553.751953 225.959625,551.921265 225.959427,550.090454   C225.955673,516.270874 226.040298,482.451355 226.087051,448.631805   C226.092804,444.469757 225.889832,440.304749 226.007187,436.147461   C226.035507,435.144379 226.955597,434.166443 227.465576,433.176941   C228.272247,433.866516 229.078888,434.556061 229.952515,435.680939  z"/>
<path fill="#31B241" opacity="1.000000" stroke="none" d=" M382.874298,595.009888   C386.157349,595.162109 388.965393,595.377930 391.773407,595.593811   C391.841187,596.247986 391.908936,596.902222 391.976715,597.556458   C390.484833,597.996094 388.993622,598.817017 387.500946,598.819641   C349.528351,598.886047 311.555573,598.878845 273.582977,598.815247   C272.169312,598.812866 270.756805,598.114136 269.343781,597.739868   C269.337311,597.108643 269.330841,596.477478 269.324371,595.846252   C271.374481,595.534912 273.424530,594.952698 275.474670,594.952576   C311.116211,594.950439 346.757721,595.019775 382.874298,595.009888  z"/>
<path fill="#05A119" opacity="1.000000" stroke="none" d=" M239.927582,440.002472   C239.927582,434.015869 239.927582,428.528717 239.927582,423.041534   C243.673309,425.779541 244.068146,557.251282 241.740219,561.368286   C241.588806,561.358948 241.430710,561.373657 241.287796,561.333801   C241.129837,561.289734 240.936172,561.234192 240.844940,561.116333   C240.552353,560.738342 240.065918,560.329773 240.065216,559.932251   C239.994843,520.122192 239.962387,480.312042 239.927582,440.002472  z"/>
<path fill="#05A119" opacity="1.000000" stroke="none" d=" M283.000610,584.984802   C276.151642,584.673767 269.673035,585.704651 263.422363,584.347290   C263.458832,583.725281 263.495300,583.103271 263.531769,582.481262   C309.575287,582.481262 355.618774,582.481262 401.662292,582.481262   C401.742645,583.051941 401.822998,583.622620 401.903351,584.193359   C400.056183,584.462585 398.209198,584.964905 396.361786,584.966614   C358.741302,585.002563 321.120789,584.981323 283.000610,584.984802  z"/>
<path fill="#12A625" opacity="1.000000" stroke="none" d=" M212.636459,462.008209   C212.636566,456.203339 212.636566,450.896423 212.636566,445.589508   C213.368149,445.529083 214.099716,445.468658 214.831299,445.408234   C215.230164,446.764221 215.974243,448.119415 215.977188,449.476257   C216.043228,479.972809 216.037872,510.469543 215.994492,540.966187   C215.992584,542.314270 215.503540,543.661743 215.241409,545.009460   C214.640213,545.030945 214.039017,545.052429 213.437820,545.073853   C213.170746,543.216003 212.674835,541.358521 212.671127,539.500183   C212.619949,513.835632 212.636429,488.170868 212.636459,462.008209  z"/>
<path fill="#05A119" opacity="1.000000" stroke="none" d=" M377.633270,609.072998   C378.047394,610.119324 378.358459,611.507141 377.857666,611.927368   C377.252136,612.435425 375.959137,612.161865 374.963654,612.162109   C344.846985,612.168823 314.730286,612.175415 284.613647,612.144775   C283.084412,612.143188 281.555511,611.809326 280.026459,611.630127   C279.971741,611.051575 279.917023,610.473083 279.862305,609.894531   C281.516174,609.584900 283.169678,609.007751 284.824036,609.005188   C315.606110,608.957947 346.388336,608.979126 377.633270,609.072998  z"/>
<path fill="#12A625" opacity="1.000000" stroke="none" d=" M348.954376,625.961182   C332.131287,625.961182 315.800629,625.961182 299.470001,625.961182   C299.399109,625.233521 299.328217,624.505920 299.257324,623.778259   C300.623840,623.364807 301.988708,622.597900 303.357117,622.591553   C320.855652,622.510315 338.354736,622.521423 355.853485,622.570801   C357.190186,622.574524 358.525604,623.044434 360.882843,623.491211   C356.838745,627.471619 352.888367,625.384949 348.954376,625.961182  z"/>
<path fill="#05A119" opacity="1.000000" stroke="none" d=" M198.998840,497.000000   C198.998840,486.029327 198.998840,475.558655 198.998840,465.087982   C202.635239,467.661194 203.217926,520.017761 201.097992,525.092285   C198.998840,523.363403 198.998840,523.363403 198.998840,511.994751   C198.998840,507.163177 198.998840,502.331573 198.998840,497.000000  z"/>
<path fill="#FFFFFF" opacity="1.000000" stroke="none" d=" M768.395020,528.250854   C763.890625,528.381714 759.791748,528.381714 755.430176,528.381714   C755.430176,510.402863 755.430176,493.078827 755.430176,474.980194   C759.283752,474.980194 763.176392,474.980194 767.531677,474.934753   C786.878540,476.173584 791.600403,490.173981 789.402161,507.698547   C787.670837,521.501160 781.765442,526.957947 768.395020,528.250854  z"/>
</svg>